<?xml version="1.0" standalone="no"?>
<!DOCTYPE svg PUBLIC "-//W3C//DTD SVG 20010904//EN"
 "http://www.w3.org/TR/2001/REC-SVG-20010904/DTD/svg10.dtd">
<svg version="1.0" xmlns="http://www.w3.org/2000/svg"
 width="450.000000pt" height="450.000000pt" viewBox="0 0 450.000000 450.000000"
 preserveAspectRatio="xMidYMid meet">
<metadata>
Created by potrace 1.11, written by Peter Selinger 2001-2013
</metadata>
<g transform="translate(0.000000,450.000000) scale(0.100000,-0.100000)"
fill="#000000" stroke="none">
<path d="M2159 4436 c-63 -43 -89 -139 -54 -205 22 -43 72 -80 115 -87 l39 -6
3 -77 c2 -42 7 -76 12 -76 5 0 8 35 7 77 l-2 77 40 20 c83 43 113 137 69 220
-29 55 -76 81 -143 81 -37 0 -60 -7 -86 -24z m135 -40 c44 -18 66 -52 66 -99
0 -51 -52 -107 -100 -107 -65 0 -109 43 -110 105 0 48 21 82 64 101 39 17 40
17 80 0z"/>
<path d="M970 4107 c-167 -354 -324 -765 -424 -1110 -133 -457 -158 -571 -171
-777 -23 -365 93 -796 298 -1108 246 -375 571 -623 1011 -772 l111 -38 3 -101
3 -100 37 -10 c20 -5 54 -11 75 -14 l37 -6 0 98 0 98 218 -5 c256 -5 319 1
605 63 15 3 17 -6 17 -101 0 -57 4 -104 8 -104 15 0 117 37 150 54 l32 17 0
104 0 105 98 49 c201 101 367 225 527 393 133 139 220 263 308 438 161 320
228 653 198 993 -31 363 -239 1054 -486 1617 -116 263 -148 330 -158 330 -11
0 -269 -261 -349 -351 l-49 -57 -92 40 c-128 55 -299 103 -459 127 -163 25
-158 25 -158 6 0 -12 -18 -15 -100 -15 -82 0 -100 3 -100 15 0 18 -24 19 -123
4 -201 -29 -333 -63 -505 -131 l-102 -41 -186 192 c-103 105 -194 196 -204
201 -15 8 -25 -6 -70 -103z m1567 -643 c382 -57 781 -250 1075 -521 l47 -43
-79 0 c-76 0 -80 1 -127 38 -257 203 -579 350 -893 408 -135 25 -412 30 -550
10 -330 -49 -642 -180 -924 -390 l-88 -66 -76 0 -76 0 35 36 c44 46 203 168
299 229 263 169 597 286 896 314 121 12 332 5 461 -15z m-1077 -434 c-6 -47
-5 -50 14 -44 11 4 68 6 126 6 307 -2 515 -153 576 -417 25 -107 25 -395 0
-540 -34 -204 -101 -414 -184 -580 -44 -89 -135 -230 -175 -273 -19 -20 -27
-36 -21 -41 5 -6 69 -55 143 -110 74 -56 128 -101 120 -101 -64 0 -365 66
-434 94 -37 16 -141 156 -269 363 l-81 132 -12 -97 c-7 -53 -14 -103 -15 -111
-5 -25 -128 169 -208 329 -124 245 -218 559 -245 815 -3 33 -8 70 -11 83 -9
43 226 264 418 393 82 56 244 148 259 149 3 0 3 -23 -1 -50z m1589 -45 c257
-61 429 -314 448 -661 7 -129 -7 -245 -43 -354 -62 -186 -284 -572 -491 -852
-70 -95 -65 -92 -238 -137 -55 -14 -277 -52 -282 -48 -1 2 58 48 132 102 l135
97 -35 47 c-251 330 -387 734 -386 1156 0 181 17 282 65 381 65 130 205 233
367 268 86 19 249 19 328 1z m-2309 -330 c0 -3 -22 -33 -50 -66 -27 -33 -54
-67 -59 -77 -35 -65 -38 -563 -6 -782 26 -174 25 -171 125 -255 50 -41 116
-93 148 -116 31 -23 61 -46 66 -50 6 -5 -29 -9 -80 -9 l-90 0 -106 85 c-59 46
-114 94 -122 107 -21 33 -54 207 -72 382 -17 158 -14 353 7 546 12 110 23 140
74 198 36 41 38 42 101 42 35 0 64 -2 64 -5z m3194 -51 c40 -51 46 -65 56
-138 39 -281 27 -610 -31 -881 -21 -101 -15 -93 -175 -220 l-82 -65 -91 0 -92
0 118 90 c210 160 202 149 224 276 31 177 43 451 29 643 -6 91 -17 179 -24
196 -7 17 -36 58 -65 93 l-52 62 70 0 71 0 44 -56z m-2197 -1639 c358 -90 666
-90 1025 1 82 20 120 24 245 23 l148 0 -54 -25 c-167 -76 -470 -151 -706 -175
-250 -25 -601 28 -890 133 -182 67 -182 67 -13 68 124 0 162 -4 245 -25z"/>
<path d="M1772 2681 c-49 -13 -109 -56 -139 -103 -23 -34 -29 -55 -31 -117 -3
-71 -1 -80 30 -131 66 -108 204 -143 315 -80 199 114 135 411 -93 434 -27 3
-64 1 -82 -3z m175 -67 c131 -106 102 -303 -53 -354 -163 -54 -317 118 -245
275 37 80 99 116 193 112 57 -2 72 -7 105 -33z"/>
<path d="M1844 2506 c-69 -30 -86 -111 -35 -168 25 -28 36 -33 76 -33 40 0 51
5 76 33 52 58 34 138 -37 168 -40 17 -41 17 -80 0z"/>
<path d="M2513 2655 c-143 -72 -172 -269 -56 -376 49 -47 93 -63 164 -64 56 0
73 4 114 30 27 17 63 50 80 74 26 37 30 53 33 119 3 72 1 80 -30 132 -64 104
-193 140 -305 85z m203 -32 c92 -47 130 -170 82 -262 -45 -88 -129 -126 -233
-107 -43 8 -100 56 -126 107 -52 103 7 244 118 279 42 14 116 6 159 -17z"/>
<path d="M2543 2498 c-45 -12 -73 -51 -73 -103 0 -37 5 -48 37 -75 31 -28 42
-31 76 -27 48 7 85 39 93 84 7 35 -8 84 -31 103 -23 19 -69 27 -102 18z"/>
</g>
</svg>
