<?xml version="1.0" standalone="no"?>
<!DOCTYPE svg PUBLIC "-//W3C//DTD SVG 20010904//EN"
 "http://www.w3.org/TR/2001/REC-SVG-20010904/DTD/svg10.dtd">
<svg version="1.0" xmlns="http://www.w3.org/2000/svg"
 width="500.000000pt" height="500.000000pt" viewBox="0 0 500.000000 500.000000"
 preserveAspectRatio="xMidYMid meet">
<metadata>
Created by potrace 1.11, written by Peter Selinger 2001-2013
</metadata>
<g transform="translate(0.000000,500.000000) scale(0.100000,-0.100000)"
fill="#000000" stroke="none">
<path d="M2419 4478 c-100 -61 -89 -213 19 -258 13 -6 22 -19 23 -32 0 -13 1
-42 2 -66 1 -23 -2 -42 -8 -42 -51 -3 -156 -11 -180 -15 -16 -2 -48 -7 -70
-10 -80 -12 -264 -65 -357 -103 l-96 -39 -172 178 c-94 99 -178 179 -186 179
-7 0 -32 -39 -55 -87 -48 -103 -153 -347 -164 -383 -4 -14 -11 -29 -15 -35 -4
-5 -19 -44 -34 -85 -15 -41 -32 -84 -37 -95 -20 -43 -130 -388 -169 -530 -23
-82 -47 -168 -55 -190 -19 -58 -54 -241 -59 -306 -2 -31 -5 -60 -8 -65 -6 -12
-2 -182 6 -269 11 -126 55 -320 97 -427 29 -77 113 -252 122 -256 4 -2 7 -8 7
-14 0 -15 106 -165 164 -233 148 -173 340 -328 507 -410 l54 -27 -3 -103 c-4
-117 -10 -107 93 -143 103 -36 246 -72 348 -86 27 -4 59 -10 70 -13 12 -3 110
-6 217 -8 173 -3 238 1 350 20 17 3 43 7 59 10 36 6 148 41 193 59 18 8 36 14
41 15 9 0 139 70 151 82 10 9 12 161 2 177 -3 5 31 31 77 58 232 136 443 344
587 579 108 177 199 424 224 610 3 22 9 63 12 90 10 68 10 274 1 360 -10 93
-47 266 -69 324 -5 14 -11 40 -14 56 -2 17 -15 71 -29 120 -14 50 -28 99 -30
109 -20 88 -158 474 -245 686 -59 142 -59 143 -135 304 l-56 120 -45 -45 c-63
-60 -190 -191 -261 -267 l-58 -63 -68 30 c-156 70 -363 121 -557 136 -41 4
-77 8 -79 11 -3 3 -6 31 -7 62 -2 57 -1 58 34 78 56 30 82 76 77 135 -2 28
-13 62 -24 78 -42 58 -130 76 -192 39z m238 -3784 c-3 -3 -12 -4 -19 -1 -8 3
-5 6 6 6 11 1 17 -2 13 -5z m-70 -10 c-3 -3 -12 -4 -19 -1 -8 3 -5 6 6 6 11 1
17 -2 13 -5z"/>
</g>
</svg>
